Coordinates
version=1
nRows=17
nColumns=24
inDegrees=yes

Units are S.I. units (second, meters, Newtons, ...)
Angles are in degrees.

endheader
time	pelvis_tilt	pelvis_list	pelvis_rotation	pelvis_tx	pelvis_ty	pelvis_tz	hip_flexion_r	hip_adduction_r	hip_rotation_r	knee_angle_r	ankle_angle_r	subtalar_angle_r	mtp_angle_r	hip_flexion_l	hip_adduction_l	hip_rotation_l	knee_angle_l	ankle_angle_l	subtalar_angle_l	mtp_angle_l	lumbar_extension	lumbar_bending	lumbar_rotation
      1.01233333	      6.95216434	      0.67307254	     -6.11305843	     -0.17624167	      0.89663499	      0.32935017	    -25.36138095	      2.61208665	      2.24073604	     -9.46586376	     21.41983587	     13.63651298	      7.20934470	     18.95567576	      0.19017627	    -12.66685283	     -4.07886796	      5.57323217	     -1.82699374	      1.91777652	    -13.48568504	     -1.34267074	     10.96131534
      1.01650000	      6.93169601	      0.75220223	     -6.15775882	     -0.17041505	      0.89564512	      0.32931004	    -25.48360850	      2.45198046	      2.03718965	     -9.97766970	     21.43018585	     13.95768315	      7.47476816	     19.04741114	      0.34417973	    -12.51207364	     -4.55383103	      5.59770737	     -1.77560154	      1.98613831	    -13.45930373	     -1.55415485	     10.96539167
      1.02066667	      6.90661496	      0.83887428	     -6.20326565	     -0.16455526	      0.89469597	      0.32927566	    -25.58161099	      2.28145667	      1.82097563	    -10.52834899	     21.40857790	     14.29957082	      7.80188014	     19.13810663	      0.50338584	    -12.36312246	     -5.08068560	      5.56759497	     -1.76746722	      2.07961650	    -13.42724511	     -1.77109828	     10.95482633
      1.02483333	      6.92327670	      0.92798957	     -6.25298115	     -0.15865432	      0.89386059	      0.32925294	    -25.72435562	      2.10304240	      1.62841767	    -11.06948800	     21.23037107	     14.51675331	     12.20484095	     19.16171748	      0.67151584	    -12.19860809	     -5.62288125	      5.45055033	     -1.89138085	      3.46037078	    -13.43687795	     -1.99337630	     10.95180125
      1.02900000	      6.87559790	      1.02646137	     -6.27728965	     -0.15267517	      0.89298326	      0.32922762	    -25.78850136	      1.93575280	      1.43543006	    -11.64247937	     21.06854323	     14.74943171	     12.25413428	     19.26059774	      0.84177642	    -12.03243777	     -6.22954880	      5.34893014	     -1.93319866	      3.48586593	    -13.35334755	     -2.23982155	     10.91881168
      1.03316667	      6.85053494	      1.13737819	     -6.31059213	     -0.14666896	      0.89218510	      0.32919632	    -25.84290779	      1.74259252	      1.20770051	    -12.28414108	     20.91801801	     15.05275511	     12.36590567	     19.32009403	      1.02973758	    -11.85523494	     -6.84949729	      5.19196017	     -2.08851037	      3.53318283	    -13.29601595	     -2.49988653	     10.88078778
      1.03733333	      6.81962191	      1.25175740	     -6.33768134	     -0.14062846	      0.89143668	      0.32916270	    -25.87191431	      1.54784034	      0.97760536	    -12.96148242	     20.72060193	     15.35094073	     12.56191860	     19.37301431	      1.22443725	    -11.64910740	     -7.47844793	      4.96549174	     -2.33652609	      3.60884089	    -13.23478219	     -2.75606315	     10.82933990
      1.04150000	      6.80183505	      1.37108101	     -6.36289961	     -0.13456446	      0.89075776	      0.32910304	    -25.88449553	      1.34208311	      0.73579842	    -13.70138826	     20.52086462	     15.65553170	     12.96912207	     19.39743976	      1.43371650	    -11.40906400	     -8.10191748	      4.67455342	     -2.72636863	      3.75613026	    -13.19524388	     -3.00647371	     10.75915461
      1.04566667	      6.75043032	      1.49070759	     -6.37123290	     -0.12844160	      0.89010021	      0.32905180	    -25.84994549	      1.15020315	      0.51474795	    -14.45835176	     20.18890425	     15.87923807	     13.42908614	     19.45803451	      1.63865573	    -11.16191338	     -8.75273009	      4.34653898	     -3.11651200	      3.91239755	    -13.09303970	     -3.27592864	     10.68901432
      1.04983333	      6.70532525	      1.62401027	     -6.38206861	     -0.12227868	      0.88951255	      0.32899435	    -25.79515056	      0.93644242	      0.28339672	    -15.26327613	     19.81752993	     16.11153478	     14.05308219	     19.49595311	      1.86282289	    -10.88990651	     -9.38861501	      3.97850307	     -3.59596132	      4.11119810	    -12.99828231	     -3.55748265	     10.60945319
      1.05400000	      6.69694483	      1.75518850	     -6.39524859	     -0.11605362	      0.88906966	      0.32897775	    -25.79156533	      0.73048153	      0.13837575	    -16.01857656	     19.15570257	     16.09741070	     19.54528241	     19.48459007	      2.07889164	    -10.68877020	    -10.02638467	      3.57973448	     -4.06428294	      5.78823535	    -12.94536064	     -3.86041700	     10.55435744
      1.05816667	      6.62191815	      1.88446084	     -6.37966562	     -0.10981711	      0.88856376	      0.32890828	    -25.65538939	      0.53359125	     -0.08142679	    -16.91149801	     18.65071093	     16.29604239	     19.61472543	     19.57722590	      2.28324360	    -10.47468589	    -10.74561334	      3.24127915	     -4.39914108	      5.80607091	    -12.80002470	     -4.15796695	     10.47461251
      1.06233333	      6.60296314	      2.03672177	     -6.37396130	     -0.10357448	      0.88820030	      0.32878810	    -25.52499274	      0.28598915	     -0.36662680	    -17.90326870	     18.14409749	     16.54831612	     20.03503213	     19.55866745	      2.54678033	    -10.13246413	    -11.35337141	      2.79404942	     -5.13711834	      5.89266022	    -12.73421603	     -4.45492402	     10.35373964
      1.06650000	      6.55420345	      2.18005859	     -6.33874953	     -0.09730654	      0.88786718	      0.32864169	    -25.34583796	      0.06293767	     -0.63424403	    -18.91472712	     17.52279174	     16.75777108	     21.04066686	     19.59208156	      2.79468551	     -9.80369217	    -12.00873824	      2.29672761	     -5.81171653	      6.06735968	    -12.63074645	     -4.74759992	     10.24039475
      1.07066667	      6.42311515	      2.27399111	     -6.32718021	     -0.09108180	      0.88747786	      0.32856195	    -25.01139359	     -0.10369092	     -0.78549495	    -20.04646550	     16.86117485	     16.83616118	     21.32392832	     19.76597529	      2.94153760	     -9.61091998	    -12.80595640	      2.02687312	     -6.20675775	      6.10778994	    -12.43346152	     -4.97148783	     10.14897429
      1.07483333	      6.41800912	      2.45220744	     -6.32187203	     -0.08475387	      0.88734445	      0.32840976	    -24.79026241	     -0.40127732	     -1.06447383	    -21.19939727	     16.10373207	     17.07400515	     22.49193240	     19.70613024	      3.24020382	     -9.23091942	    -13.38602616	      1.62750042	     -7.05507168	      6.24850565	    -12.36881917	     -5.32222174	     10.00669503
      1.07900000	      6.31698857	      2.52807408	     -6.26164363	     -0.07849952	      0.88712910	      0.32823890	    -24.44403237	     -0.54934089	     -1.26676500	    -22.36752475	     15.14704737	     17.11695081	     27.48673888	     19.85877237	      3.38264073	     -8.99993351	    -14.22309351	      1.33736992	     -7.49076066	      6.75183043	    -12.22146068	     -5.51393907	      9.92814705
